<?xml version="1.0" encoding="UTF-8"?><svg xmlns="http://www.w3.org/2000/svg" viewBox="0 0 64 64"><defs><style>.d{fill:#000842;}.e{fill:#f6ae2d;}.f{fill:#fff;}</style></defs><g id="a"><rect class="d" width="64" height="64"/></g><g id="c"><g><path class="f" d="m49.66,8H16.39c-2.37,0-4.34,1.97-4.34,4.34v4.65l-4.05-.03v1.97l4.05.03v7.04l-4.05-.03v1.97l4.05.03v7.06l-4.05-.03v1.97l4.05.03v7.1l-4.05-.03v1.97l4.05.03v3.58c0,2.37,1.97,4.34,4.34,4.34h33.27c2.37,0,4.34-1.97,4.34-4.34V12.34c0-2.37-1.97-4.34-4.34-4.34Zm2.37,41.66c0,1.28-1.08,2.37-2.37,2.37H16.39c-1.28,0-2.37-1.08-2.37-2.37v-3.58l3.94.04v-1.97l-3.94-.04v-7.1l3.94.04v-1.97l-3.94-.04v-7.06l3.94.04v-1.97l-3.94-.04v-7.04l3.94.04v-1.97l-3.94-.04v-4.65c0-1.28,1.08-2.37,2.37-2.37h33.27c1.28,0,2.37,1.08,2.37,2.37v37.32Z"/><path class="e" d="m25.64,17.43c.21-.11.42-.2.63-.27.57-.18,1.22-.16,1.71.33l3.08,3.06c.49.49.47,1.09.23,1.6-.36.76-1.13,1.47-2.02,2.25l-5.58-5.55c.68-.57,1.32-1.08,1.95-1.42h0Z"/><path class="e" d="m22.28,20.29l5.56,5.54c-1.59,1.48.08,4.3,2.97,7.18,2.89,2.88,6.33,5.14,8.06,3.79l5.56,5.54c-4.4,3.76-12.36.64-18.33-5.3-5.97-5.94-8.23-12.97-3.83-16.74h0Z"/><path class="e" d="m42.11,33.91c.21-.11.42-.2.63-.27.57-.18,1.22-.16,1.71.33l3.08,3.06c.49.49.47,1.09.23,1.6-.36.76-1.13,1.47-2.02,2.25l-5.58-5.55c.68-.57,1.32-1.08,1.95-1.42h0Z"/></g></g></svg>