<?xml version="1.0" encoding="UTF-8"?><svg id="a" xmlns="http://www.w3.org/2000/svg" viewBox="0 0 150 150"><defs><style>.c{fill:#000842;}.d{fill:#f6ae2d;}.e{fill:#fff;}</style></defs><g><path class="c" d="m80.47,56.81c-3.17-3.1-7.48-4.85-11.98-4.85s-8.81,1.75-11.98,4.85-4.96,7.31-4.96,11.71,1.79,8.61,4.96,11.71c3.17,3.1,7.48,4.85,11.98,4.85s8.81-1.75,11.98-4.85c3.17-3.1,4.96-7.31,4.96-11.71s-1.79-8.59-4.96-11.71Zm-23.5,18.59c-.99-1.58-1.62-3.38-1.86-5.23h3.32c.15,3.22.97,6.39,2.42,9.27-1.57-1.06-2.88-2.44-3.87-4.04Zm1.45-8.54h-3.32c.24-1.84.87-3.64,1.86-5.23.99-1.61,2.3-2.98,3.87-4.04-1.45,2.89-2.27,6.06-2.42,9.27Zm8.37,14.36c-2.42-1.35-4.6-5.46-4.99-11.05h4.99v11.05Zm0-14.36h-4.99c.39-5.58,2.57-9.7,4.99-11.05v11.05Zm13.21-5.23c.99,1.58,1.62,3.38,1.86,5.23h-3.32c-.15-3.22-.97-6.39-2.42-9.27,1.57,1.06,2.88,2.44,3.87,4.04Zm-9.82,19.58v-11.05h4.99c-.39,5.58-2.57,9.7-4.99,11.05Zm0-14.36v-11.05c2.42,1.35,4.6,5.46,4.99,11.05h-4.99Zm9.82,8.54c-.99,1.61-2.3,2.98-3.87,4.04,1.45-2.89,2.27-6.05,2.42-9.27h3.32c-.24,1.84-.87,3.64-1.86,5.23Z"/><path class="c" d="m99.87,44.47c-1.57-1.56-3.73-2.44-5.98-2.44h-50.82c-2.25,0-4.4.88-5.98,2.44-1.6,1.54-2.49,3.64-2.49,5.84v36.42c0,2.2.9,4.3,2.49,5.84,1.57,1.56,3.73,2.44,5.98,2.44h15.25v8.28c0,.4.15.78.41,1.06.24.31.6.5,1.02.57.39.07.8,0,1.14-.21l16.53-9.7h16.48c2.25,0,4.4-.88,5.98-2.44,1.6-1.54,2.49-3.64,2.49-5.84v-36.42c0-2.2-.9-4.3-2.49-5.84Zm-.9,42.27c0,1.32-.53,2.58-1.5,3.5-.94.95-2.23,1.47-3.58,1.47h-16.94c-.31,0-.6.07-.87.24l-14.37,8.42v-7c0-.45-.17-.85-.48-1.18-.34-.31-.75-.47-1.21-.47h-16.94c-1.36,0-2.64-.52-3.58-1.47-.97-.92-1.5-2.18-1.5-3.5v-36.42c0-1.32.53-2.58,1.5-3.5.94-.95,2.23-1.47,3.58-1.47h50.82c1.36,0,2.64.52,3.58,1.47.97.92,1.5,2.18,1.5,3.5v36.42Z"/><path class="d" d="m97.48,46.81c-.94-.95-2.23-1.47-3.58-1.47h-50.82c-1.36,0-2.64.52-3.58,1.47-.97.92-1.5,2.18-1.5,3.5v36.42c0,1.32.53,2.58,1.5,3.5.94.95,2.23,1.47,3.58,1.47h16.94c.46,0,.87.17,1.21.47.31.33.48.73.48,1.18v7l14.37-8.42c.27-.17.56-.24.87-.24h16.94c1.36,0,2.64-.52,3.58-1.47.97-.92,1.5-2.18,1.5-3.5v-36.42c0-1.32-.53-2.58-1.5-3.5Zm-17.01,33.42c-3.17,3.1-7.48,4.85-11.98,4.85s-8.81-1.75-11.98-4.85c-3.17-3.1-4.96-7.31-4.96-11.71s1.79-8.61,4.96-11.71,7.48-4.85,11.98-4.85,8.81,1.75,11.98,4.85c3.17,3.12,4.96,7.31,4.96,11.71s-1.79,8.61-4.96,11.71Z"/><path class="e" d="m81.87,70.18c-.24,1.84-.87,3.64-1.86,5.23-.99,1.61-2.3,2.98-3.87,4.04,1.45-2.89,2.27-6.05,2.42-9.27h3.32Z"/><path class="e" d="m81.87,66.86h-3.32c-.15-3.22-.97-6.39-2.42-9.27,1.57,1.06,2.88,2.44,3.87,4.04.99,1.58,1.62,3.38,1.86,5.23Z"/><path class="e" d="m75.17,66.86h-4.99v-11.05c2.42,1.35,4.6,5.46,4.99,11.05Z"/><path class="e" d="m66.79,55.82v11.05h-4.99c.39-5.58,2.57-9.7,4.99-11.05Z"/><path class="e" d="m60.84,57.59c-1.45,2.89-2.27,6.06-2.42,9.27h-3.32c.24-1.84.87-3.64,1.86-5.23.99-1.61,2.3-2.98,3.87-4.04Z"/><path class="e" d="m60.84,79.45c-1.57-1.06-2.88-2.44-3.87-4.04-.99-1.58-1.62-3.38-1.86-5.23h3.32c.15,3.22.97,6.39,2.42,9.27Z"/><path class="e" d="m66.79,70.18v11.05c-2.42-1.35-4.6-5.46-4.99-11.05h4.99Z"/><path class="e" d="m75.17,70.18c-.39,5.58-2.57,9.7-4.99,11.05v-11.05h4.99Z"/></g><g id="b"><g><path class="e" d="m132.73,138.58c-1.6,0-2.96-.55-4.05-1.64l-24.11-24.44-1.05.84c-9.82,7.83-22.26,12.14-35.02,12.14-15.26,0-29.59-5.92-40.33-16.66-10.74-10.74-16.66-25.07-16.66-40.33s5.92-29.59,16.66-40.33c10.74-10.74,25.07-16.66,40.33-16.66s29.58,5.92,40.33,16.66c20.32,20.32,22.26,52.79,4.51,75.52l-.82,1.05,24.28,24.11c1.13,1.13,1.74,2.62,1.71,4.19-.02,1.5-.62,2.88-1.69,3.88-.84.74-2.26,1.67-4.08,1.67ZM68.49,22.88c-12.15,0-23.59,4.75-32.22,13.38-8.63,8.63-13.38,20.07-13.38,32.22s4.75,23.59,13.38,32.22c8.63,8.63,20.07,13.38,32.22,13.38s23.59-4.75,32.22-13.38,13.38-20.07,13.38-32.22-4.75-23.59-13.38-32.22c-8.63-8.63-20.07-13.38-32.22-13.38Z"/><path class="c" d="m68.49,13c14.86,0,28.81,5.76,39.27,16.22,19.79,19.79,21.68,51.4,4.39,73.54l-1.64,2.1,1.89,1.88,23.32,23.16c.84.84,1.29,1.95,1.28,3.11-.02,1.07-.44,2.06-1.19,2.78-.68.6-1.76,1.29-3.08,1.29-1.22,0-2.17-.38-2.98-1.18l-23.17-23.49-1.9-1.92-2.11,1.68c-9.56,7.62-21.66,11.81-34.09,11.81-14.86,0-28.81-5.76-39.27-16.22-10.46-10.46-16.22-24.41-16.22-39.27s5.76-28.81,16.22-39.27c10.46-10.46,24.41-16.22,39.27-16.22m0,102.59c12.55,0,24.37-4.91,33.28-13.82,8.91-8.91,13.82-20.73,13.82-33.28s-4.91-24.37-13.82-33.28c-8.91-8.91-20.73-13.82-33.28-13.82s-24.37,4.91-33.28,13.82c-8.91,8.91-13.82,20.73-13.82,33.28s4.91,24.37,13.82,33.28c8.91,8.91,20.73,13.82,33.28,13.82m0-105.59c-15.66,0-30.36,6.07-41.39,17.1-11.03,11.03-17.1,25.73-17.1,41.39s6.07,30.36,17.1,41.39c11.03,11.03,25.73,17.1,41.39,17.1,12.94,0,25.73-4.31,35.96-12.46l23.17,23.49c1.44,1.44,3.2,2.08,5.11,2.08s3.68-.8,5.11-2.08c2.88-2.72,2.88-7.35,0-10.23h0s-23.33-23.17-23.33-23.17c18.22-23.33,16.3-56.57-4.63-77.5-11.03-11.03-25.73-17.1-41.39-17.1h0Zm0,102.59c-11.67,0-22.85-4.63-31.16-12.94-8.31-8.31-12.94-19.5-12.94-31.16s4.63-22.85,12.94-31.16c8.31-8.31,19.5-12.94,31.16-12.94s22.85,4.63,31.16,12.94c8.31,8.31,12.94,19.34,12.94,31.16s-4.63,22.85-12.94,31.16c-8.31,8.31-19.5,12.94-31.16,12.94h0Z"/></g></g></svg>