<?xml version="1.0" encoding="UTF-8"?><svg id="b" xmlns="http://www.w3.org/2000/svg" viewBox="0 0 32 32"><defs><style>.c{fill:#000842;}.d{fill:#f6ae2d;}.e{fill:#fff;}</style></defs><path class="c" d="m19.08,13.38l-.4-1.07h4.86V2h-15.16v10.31h4.99l-.39,1.07H2v2.94h1.91v13.68h1.12v-11.01h13.2v10.17h1.49v.84h1.12v-.84h4.5v.84h1.12v-.84h1.35v-12.84h2.19v-2.94h-10.92Zm-9.58-2.16V3.15h12.92v8.07h-12.92Zm8.37,2.19h-3.71l.39-1.07h2.92l.4,1.07Zm.33,4.45H5.01v-1.54h13.19v1.54Zm8.43,7.94h-7.3v-.87h7.3v.87Zm0-4.29h-7.3v-.84h7.3v.84Zm0-4.21h-7.3v-.95h7.3v.95Zm2.13-2.1H3.07v-.7h25.69v.7Z"/><rect class="d" x="19.33" y="24.93" width="7.3" height=".87"/><rect class="d" x="19.33" y="20.67" width="7.3" height=".84"/><rect class="d" x="19.33" y="16.35" width="7.3" height=".95"/><rect class="d" x="5.01" y="16.32" width="13.19" height="1.54"/><rect class="d" x="3.07" y="14.5" width="25.69" height=".7"/><path class="e" d="m9.5,3.15v8.07h12.92V3.15h-12.92Zm12.07,7.15h-11.23v-1.12h11.23v1.12Z"/><rect class="c" x="10.34" y="9.18" width="11.23" height="1.12"/></svg>