<?xml version="1.0" encoding="UTF-8"?><svg id="b" xmlns="http://www.w3.org/2000/svg" viewBox="0 0 32 32"><defs><style>.c{fill:#000842;}.d{fill:#f6ae2d;}.e{fill:#fff;}</style></defs><path class="c" d="m20.95,10.11c-1.31-1.28-3.09-2-4.95-2s-3.64.72-4.95,2-2.05,3.02-2.05,4.84.74,3.56,2.05,4.84,3.09,2,4.95,2,3.64-.72,4.95-2,2.05-3.02,2.05-4.84-.74-3.55-2.05-4.84Zm-9.71,7.68c-.41-.65-.67-1.4-.77-2.16h1.37c.06,1.33.4,2.64,1,3.83-.65-.44-1.19-1.01-1.6-1.67Zm.6-3.53h-1.37c.1-.76.36-1.51.77-2.16.41-.66.95-1.23,1.6-1.67-.6,1.19-.94,2.5-1,3.83Zm3.46,5.93c-1-.56-1.9-2.26-2.06-4.56h2.06v4.56Zm0-5.93h-2.06c.16-2.31,1.06-4.01,2.06-4.56v4.56Zm5.46-2.16c.41.65.67,1.4.77,2.16h-1.37c-.06-1.33-.4-2.64-1-3.83.65.44,1.19,1.01,1.6,1.67Zm-4.06,8.09v-4.56h2.06c-.16,2.31-1.06,4.01-2.06,4.56Zm0-5.93v-4.56c1,.56,1.9,2.26,2.06,4.56h-2.06Zm4.06,3.53c-.41.66-.95,1.23-1.6,1.67.6-1.19.94-2.5,1-3.83h1.37c-.1.76-.36,1.51-.77,2.16Z"/><path class="c" d="m28.97,5.01c-.65-.65-1.54-1.01-2.47-1.01H5.5c-.93,0-1.82.36-2.47,1.01-.66.64-1.03,1.51-1.03,2.41v15.05c0,.91.37,1.78,1.03,2.41.65.65,1.54,1.01,2.47,1.01h6.3v3.42c0,.17.06.32.17.44.1.13.25.21.42.23.16.03.33,0,.47-.09l6.83-4.01h6.81c.93,0,1.82-.36,2.47-1.01.66-.64,1.03-1.51,1.03-2.41V7.42c0-.91-.37-1.78-1.03-2.41Zm-.37,17.47c0,.55-.22,1.07-.62,1.45-.39.39-.92.61-1.48.61h-7c-.13,0-.25.03-.36.1l-5.94,3.48v-2.89c0-.19-.07-.35-.2-.49-.14-.13-.31-.2-.5-.2h-7c-.56,0-1.09-.22-1.48-.61-.4-.38-.62-.9-.62-1.45V7.42c0-.55.22-1.07.62-1.45.39-.39.92-.61,1.48-.61h21c.56,0,1.09.22,1.48.61.4.38.62.9.62,1.45v15.05Z"/><path class="e" d="m27.98,5.97c-.39-.39-.92-.6-1.48-.6H5.5c-.56,0-1.09.21-1.48.6-.4.39-.62.9-.62,1.45v15.05c0,.55.22,1.07.62,1.45.39.39.92.61,1.48.61h7c.19,0,.36.06.5.19.13.14.2.3.2.49v2.89l5.94-3.48c.11-.07.23-.09.36-.09h7c.56,0,1.09-.22,1.48-.61.4-.38.62-.9.62-1.45V7.42c0-.55-.22-1.06-.62-1.45Zm-7.03,13.81c-1.31,1.29-3.09,2.01-4.95,2.01s-3.64-.72-4.95-2.01c-1.31-1.28-2.05-3.02-2.05-4.83s.74-3.56,2.05-4.84,3.09-2,4.95-2,3.64.72,4.95,2c1.31,1.29,2.05,3.02,2.05,4.84s-.74,3.55-2.05,4.83Z"/><path class="d" d="m21.53,15.63c-.1.76-.36,1.51-.77,2.16-.41.67-.95,1.23-1.6,1.67.6-1.19.94-2.5,1-3.83h1.37Z"/><path class="d" d="m21.53,14.26h-1.37c-.06-1.33-.4-2.64-1-3.83.65.44,1.19,1.01,1.6,1.67.41.66.67,1.4.77,2.16Z"/><path class="d" d="m18.76,14.26h-2.06v-4.56c1,.56,1.9,2.26,2.06,4.56Z"/><path class="d" d="m15.3,9.7v4.56h-2.06c.16-2.3,1.06-4,2.06-4.56Z"/><path class="d" d="m12.84,10.43c-.6,1.19-.94,2.5-1,3.83h-1.37c.1-.76.36-1.5.77-2.16.41-.66.95-1.23,1.6-1.67Z"/><path class="d" d="m12.84,19.46c-.65-.44-1.19-1-1.6-1.67-.41-.65-.67-1.4-.77-2.16h1.37c.06,1.33.4,2.64,1,3.83Z"/><path class="d" d="m15.3,15.63v4.57c-1-.56-1.9-2.26-2.06-4.57h2.06Z"/><path class="d" d="m18.76,15.63c-.16,2.31-1.06,4.01-2.06,4.57v-4.57h2.06Z"/></svg>