<?xml version="1.0" encoding="UTF-8"?><svg id="b" xmlns="http://www.w3.org/2000/svg" viewBox="0 0 32 32"><defs><style>.c{fill:#000842;}.d{fill:#f6ae2d;}</style></defs><path class="c" d="m29.06,9.13l-4.07-7.33h-8.15l-3.64,6.57h-7.24L1.88,15.69l4.08,7.33h7.24l3.64,6.56h8.15l4.07-7.32-3.64-6.57,3.64-6.56Zm-11.33-5.83h6.38l3.23,5.83-3.22,5.8h-6.37l-3.24-5.83,3.22-5.8Zm-4.54,18.22h-6.35l-3.24-5.83,3.24-5.82h6.35l3.23,5.82-3.23,5.83Zm14.15.74l-3.23,5.82h-6.38l-3.22-5.8,3.24-5.83h6.37l3.22,5.81Z"/><polygon class="d" points="16.42 15.69 13.19 21.52 6.84 21.52 3.6 15.69 6.84 9.87 13.19 9.87 16.42 15.69"/><polygon class="d" points="27.34 22.26 24.11 28.08 17.73 28.08 14.51 22.28 17.75 16.45 24.12 16.45 27.34 22.26"/><polygon class="d" points="27.34 9.13 24.12 14.93 17.75 14.93 14.51 9.1 17.73 3.3 24.11 3.3 27.34 9.13"/></svg>