<?xml version="1.0" encoding="UTF-8"?><svg id="b" xmlns="http://www.w3.org/2000/svg" viewBox="0 0 32 32"><defs><style>.c{fill:#f6ae2d;}.d{fill:#fff;}.e{fill:#000842;fill-rule:evenodd;}</style></defs><path class="e" d="m27.95,3.66l-2.07-.02v-1.64H6.37v1.64h-2.25s-.17,26.27-.11,26.34c.07.06,23.99-.03,23.99-.03l-.05-26.29Zm-12.91,3.12h2.3v2.29h-2.3v-2.29Zm0,5.16h2.3v2.29h-2.3v-2.29Zm-5.8,7.33h-2.29v-2.29h2.29v2.29Zm0-5.1h-2.29v-2.3h2.29v2.3Zm0-5.1h-2.29v-2.29h2.29v2.29Zm10.15,20.33h-6.55v-6.55h6.55v6.55Zm6.05-10.13h-2.29v-2.29h2.29v2.29Zm0-5.1h-2.29v-2.3h2.29v2.3Zm0-5.1h-2.29v-2.29h2.29v2.29Z"/><rect class="d" x="23.15" y="16.98" width="2.29" height="2.29"/><rect class="c" x="12.84" y="22.85" width="6.55" height="6.55"/><rect class="d" x="6.95" y="16.98" width="2.29" height="2.29"/><rect class="d" x="6.95" y="11.87" width="2.29" height="2.3"/><rect class="d" x="15.04" y="11.94" width="2.3" height="2.29"/><rect class="d" x="23.15" y="11.87" width="2.29" height="2.3"/><rect class="d" x="23.15" y="6.78" width="2.29" height="2.29"/><rect class="d" x="15.04" y="6.78" width="2.3" height="2.29"/><rect class="d" x="6.95" y="6.78" width="2.29" height="2.29"/></svg>